#!OML:ASF H:\Dans Jumps\Project 1\Capture day 1\Session 1\subject.ASF
:FULLY-SPECIFIED
:DEGREES
184
root 0.268629 13.703 -15.9577 41.1514 0.445502 -3.93323
lowerback 49.9574 2.89778 -1.73297
upperback 2.37772 3.13671 2.8749
thorax -18.5922 1.3895 2.51091
lowerneck -17.5714 -0.403941 -1.67688
upperneck -17.9745 -0.378413 -0.75017
head -2.96557 -0.0746429 0.0255694
rclavicle -1.70955e-014 -2.23633e-015
rhumerus -66.2966 -17.9584 -52.4662
rradius 17.6861
rwrist 37.8723
rhand -14.8809 -18.9606
rfingers 7.12502
rthumb 11.2796 -48.6373
lclavicle -1.70955e-014 -2.23633e-015
lhumerus -68.5091 2.74736 76.9702
lradius 12.2296
lwrist 12.6671
lhand -19.5707 -6.59625
lfingers 7.12502
lthumb 6.75421 23.276
rfemur -96.0404 0.431088 25.5229
rtibia 85.1074
rfoot -32.6203 -15.7839
rtoes 1.16035
lfemur -97.4477 7.2993 -22.5882
ltibia 85.5616
lfoot -26.318 22.0428
ltoes -10.1114
185
root 0.261914 13.6916 -15.8741 41.5383 0.632229 -3.86633
lowerback 49.6991 2.83375 -1.67319
upperback 2.40323 3.09795 2.87257
thorax -18.5116 1.37275 2.50136
lowerneck -17.3453 -0.39868 -1.52634
upperneck -18.3609 -0.416081 -0.85352
head -3.13994 -0.097666 -0.0342923
rclavicle -4.96962e-015 -3.62782e-015
rhumerus -65.2615 -18.4897 -52.5409
rradius 17.2996
rwrist 38.4746
rhand -15.1364 -18.9865
rfingers 7.12502
rthumb 11.0332 -48.6766
lclavicle -4.96962e-015 -3.62782e-015
lhumerus -67.5723 3.44963 75.8263
lradius 11.5692
lwrist 10.5361
lhand -19.4914 -6.68241
lfingers 7.12502
lthumb 6.83083 23.1874
rfemur -96.2107 0.347804 25.5617
rtibia 85.3441
rfoot -32.7344 -15.9402
rtoes 1.27089
lfemur -97.6212 7.20934 -22.5999
ltibia 85.7552
lfoot -26.4317 22.1391
ltoes -10.0605
186
root 0.255971 13.6871 -15.7832 41.8975 0.82023 -3.78923
lowerback 49.401 2.75796 -1.60376
upperback 2.4087 3.05191 2.87149
thorax -18.4477 1.35335 2.49245
lowerneck -17.1566 -0.387594 -1.39452
upperneck -18.6652 -0.441464 -0.966155
head -3.28039 -0.11371 -0.0941357
rclavicle 5.96354e-015 -2.9122e-014
rhumerus -64.0715 -19.0929 -52.6044
rradius 16.9101
rwrist 39.1457
rhand -15.3828 -19.003
rfingers 7.12502
rthumb 10.7955 -48.7056
lclavicle 5.96354e-015 -2.9122e-014
lhumerus -66.4987 4.37875 74.3084
lradius 10.8592
lwrist 8.14055
lhand -19.4514 -6.78301
lfingers 7.12502
lthumb 6.86944 23.0855
rfemur -96.2719 0.27364 25.5602
rtibia 85.5261
rfoot -32.8664 -16.0941
rtoes 1.4728
lfemur -97.679 7.09884 -22.5875
ltibia 85.8903
lfoot -26.5645 22.2473
ltoes -10.0307
187
root 0.250468 13.6898 -15.6846 42.2118 0.996868 -3.70431
lowerback 49.0778 2.68209 -1.54026
upperback 2.39779 3.00363 2.87244
thorax -18.3989 1.33406 2.48976
lowerneck -17.0075 -0.37522 -1.29616
upperneck -18.8924 -0.456102 -1.06439
head -3.38739 -0.122955 -0.143625
rclavicle 5.76476e-015 5.61567e-015
rhumerus -62.7154 -19.7492 -52.7021
rradius 16.5409
rwrist 39.8607
rhand -15.5887 -18.9839
rfingers 7.12502
rthumb 10.5969 -48.6968
lclavicle 5.76476e-015 5.61567e-015
lhumerus -65.301 5.58186 72.3999
lradius 10.1105
lwrist 5.49091
lhand -19.4496 -6.91094
lfingers 7.12502
lthumb 6.87111 22.9576
rfemur -96.1996 0.219794 25.5129
rtibia 85.6491
rfoot -33.0197 -16.249
rtoes 1.77104
lfemur -97.5974 6.97994 -22.5515
ltibia 85.9623
lfoot -26.7298 22.3601
ltoes -10.0022
188
root 0.245195 13.7001 -15.5778 42.4697 1.1676 -3.6058
lowerback 48.7351 2.60079 -1.48311
upperback 2.37748 2.94589 2.87431
thorax -18.3566 1.3119 2.49589
lowerneck -16.915 -0.367662 -1.24494
upperneck -19.0412 -0.462815 -1.11891
head -3.45698 -0.126677 -0.170639
rclavicle 1.5704e-014 1.72446e-014
rhumerus -61.1709 -20.4331 -52.8971
rradius 16.2088
rwrist 40.5664
rhand -15.8029 -18.944
rfingers 7.12502
rthumb 10.3903 -48.6673
lclavicle 1.5704e-014 1.72446e-014
lhumerus -63.8323 6.37284 71.6085
lradius 9.34574
lwrist 4.21353
lhand -19.7292 -7.0124
lfingers 7.12502
lthumb 6.6012 22.8647
rfemur -95.9782 0.180097 25.4191
rtibia 85.7109
rfoot -33.1922 -16.4285
rtoes 2.13404
lfemur -97.3584 6.84345 -22.4887
ltibia 85.9677
lfoot -26.9325 22.4703
ltoes -9.93054
189
root 0.23998 13.718 -15.4628 42.6694 1.3262 -3.48521
lowerback 47.5609 2.51545 -1.49584
upperback 3.3778 2.866 2.89543
thorax -18.5276 1.30327 2.56152
lowerneck -16.8845 -0.370154 -1.2404
upperneck -19.1221 -0.467348 -1.1145
head -3.49168 -0.128232 -0.170159
rclavicle -1.2921e-014 1.2921e-015
rhumerus -59.4013 -21.0879 -53.2919
rradius 15.9424
rwrist 41.1198
rhand -16.0416 -18.9104
rfingers 7.12502
rthumb 10.1601 -48.6451
lclavicle -1.2921e-014 1.2921e-015
lhumerus -62.1703 7.21283 70.8663
lradius 8.58173
lwrist 3.10329
lhand -20.0687 -7.17112
lfingers 7.12502
lthumb 6.27349 22.716
rfemur -95.6086 0.152203 25.2731
rtibia 85.7068
rfoot -33.3738 -16.6584
rtoes 2.5008
lfemur -96.9576 6.68458 -22.4095
ltibia 85.9007
lfoot -27.1678 22.5793
ltoes -9.79642
190
root 0.234833 13.7431 -15.3398 42.8204 1.47454 -3.34189
lowerback 47.1787 2.42315 -1.47055
upperback 3.33027 2.77555 2.88588
thorax -18.4706 1.27066 2.58907
lowerneck -16.8986 -0.377321 -1.2471
upperneck -19.1571 -0.472371 -1.08538
head -3.50235 -0.130469 -0.15954
rclavicle -2.5842e-015 2.03754e-015
rhumerus -57.3922 -21.6681 -53.9349
rradius 15.7566
rwrist 41.4302
rhand -16.3412 -18.9093
rfingers 7.12502
rthumb 9.87098 -48.6579
lclavicle -2.5842e-015 2.03754e-015
lhumerus -60.3233 8.10861 70.1577
lradius 7.84038
lwrist 2.02315
lhand -20.4267 -7.35268
lfingers 7.12502
lthumb 5.92783 22.5444
rfemur -95.1049 0.132063 25.083
rtibia 85.6329
rfoot -33.5517 -16.9584
rtoes 2.81209
lfemur -96.4089 6.49747 -22.316
ltibia 85.76
lfoot -27.4155 22.6976
ltoes -9.5912
191
root 0.229771 13.7759 -15.2088 42.9088 1.6022 -3.19865
lowerback 46.7766 2.33942 -1.46577
upperback 3.28396 2.68476 2.87656
thorax -18.4052 1.23928 2.62758
lowerneck -16.9666 -0.388863 -1.24557
upperneck -19.1477 -0.483912 -1.06144
head -3.48817 -0.137178 -0.152162
rclavicle 1.86858e-014 5.61567e-015
rhumerus -55.1404 -22.1699 -54.7985
rradius 15.652
rwrist 41.4996
rhand -16.7161 -18.9621
rfingers 7.12502
rthumb 9.50927 -48.7275
lclavicle 1.86858e-014 5.61567e-015
lhumerus -58.2794 9.05803 69.5064
lradius 7.12191
lwrist 0.828595
lhand -20.7697 -7.53036
lfingers 7.12502
lthumb 5.59668 22.3757
rfemur -94.4428 0.135263 24.8696
rtibia 85.4783
rfoot -33.7311 -17.3212
rtoes 3.06254
lfemur -95.698 6.30799 -22.199
ltibia 85.544
lfoot -27.661 22.8432
ltoes -9.35825
192
root 0.227335 13.8125 -15.0724 43.0063 1.69118 -3.07892
lowerback 46.2665 2.25659 -1.45125
upperback 3.2327 2.59667 2.84885
thorax -18.3102 1.20795 2.63931
lowerneck -17.0509 -0.403586 -1.21896
upperneck -19.1197 -0.505786 -1.05862
head -3.46464 -0.15072 -0.156243
rclavicle -1.47101e-014 -1.1281e-014
rhumerus -52.67 -22.6117 -55.8361
rradius 15.6279
rwrist 41.4025
rhand -17.1461 -19.0838
rfingers 7.12502
rthumb 9.09441 -48.8677
lclavicle -1.47101e-014 -1.1281e-014
lhumerus -56.0433 10.0442 68.9122
lradius 6.44862
lwrist -0.593976
lhand -21.0681 -7.67157
lfingers 7.12502
lthumb 5.30859 22.2419
rfemur -93.7323 0.164903 24.6526
rtibia 85.244
rfoot -33.8811 -17.7105
rtoes 3.2122
lfemur -94.9394 6.11745 -22.0616
ltibia 85.2662
lfoot -27.8653 23.0328
ltoes -9.11618
193
root 0.22619 13.8557 -14.9289 43.0509 1.73431 -2.99818
lowerback 45.7223 2.19439 -1.44006
upperback 3.18035 2.52917 2.81133
thorax -18.2038 1.18427 2.63086
lowerneck -17.1425 -0.419 -1.16351
upperneck -19.0719 -0.53714 -1.09337
head -3.43296 -0.170478 -0.17786
rclavicle -3.18055e-015 -1.66979e-014
rhumerus -50.005 -23.0069 -56.9949
rradius 15.6854
rwrist 41.2308
rhand -17.6165 -19.2611
rfingers 7.12502
rthumb 8.64045 -49.0643
lclavicle -3.18055e-015 -1.66979e-014
lhumerus -53.612 11.0588 68.3912
lradius 5.83751
lwrist -2.30064
lhand -21.326 -7.72031
lfingers 7.12502
lthumb 5.05961 22.1993
rfemur -92.8752 0.238967 24.4388
rtibia 84.9181
rfoot -34.0471 -18.085
rtoes 3.34921
lfemur -94.0467 5.96917 -21.9006
ltibia 84.9211
lfoot -28.0479 23.2768
ltoes -8.96349
194
root 0.226368 13.9052 -14.7788 43.0574 1.72119 -2.96559
lowerback 45.1154 2.15932 -1.4319
upperback 3.12921 2.48993 2.76045
thorax -18.0739 1.17126 2.59456
lowerneck -17.2238 -0.436585 -1.08847
upperneck -19.012 -0.577899 -1.15748
head -3.39869 -0.195785 -0.212691
rclavicle 9.93923e-016 7.85199e-015
rhumerus -47.1676 -23.3429 -58.2614
rradius 15.847
rwrist 40.9866
rhand -18.0693 -19.4863
rfingers 7.12502
rthumb 8.20348 -49.307
lclavicle 9.93923e-016 7.85199e-015
lhumerus -51.0041 12.0785 67.9479
lradius 5.33757
lwrist -4.25691
lhand -21.5635 -7.69045
lfingers 7.12502
lthumb 4.83028 22.2345
rfemur -91.8905 0.363899 24.2354
rtibia 84.4975
rfoot -34.2227 -18.4273
rtoes 3.43862
lfemur -93.039 5.88134 -21.7232
ltibia 84.5112
lfoot -28.2106 23.5752
ltoes -8.96928
